<svg version="1.1" id="maxwellLogo" xmlns="http://www.w3.org/2000/svg" xmlns:xlink="http://www.w3.org/1999/xlink" x="0px" y="0px"
	 width="160px" height="80px" viewBox="0 0 160 80" style="enable-background:new 0 0 160 80;" xml:space="preserve">
<style type="text/css">
	.st0{fill:#231F20;}
</style>
<g>
	<g>
		<path class="st0" d="M31.5,10.3c0,0,4.1-2.8,11.2-0.8c7.2,2,17.4,11.3,27,9.1l0-0.8C60,19.6,49.9,10,42.8,7.7
			c-7.2-2.3-11.4,0.3-11.4,0.3L31.5,10.3z"/>
		<path class="st0" d="M31.5,14.4c0,0,4.1-3,11.2-1.4c7.2,1.6,17.4,10.3,27,7.5l0-0.8C60,22,49.9,13,42.8,11.1
			C35.6,9.2,31.4,12,31.4,12L31.5,14.4z"/>
		<path class="st0" d="M31.5,18.5c0,0,4.1-3.3,11.2-2.1c7.2,1.2,17.4,9.2,27,5.9l0-0.8c-9.7,2.9-19.8-5.5-26.9-7
			c-7.2-1.5-11.4,1.6-11.4,1.6L31.5,18.5z"/>
		<path class="st0" d="M31.5,22.5c0,0,4.1-3.5,11.2-2.8c7.2,0.7,17.4,8.1,27,4.2l0-0.8c-9.7,3.5-19.8-4.3-26.9-5.3
			c-7.2-1-11.4,2.3-11.4,2.3L31.5,22.5z"/>
		<path class="st0" d="M31.5,26.5c0,0,4.1-3.7,11.2-3.4c7.2,0.3,17.4,7.2,27,2.8l0-0.8c-9.7,4-19.8-3.2-26.9-3.9
			c-7.2-0.6-11.4,2.9-11.4,2.9L31.5,26.5z"/>
		<path class="st0" d="M31.5,30.6c0,0,4.1-4,11.2-4.1c7.2-0.1,17.4,6.2,27,1.2l0-0.8c-9.7,4.6-19.8-2.1-26.9-2.3
			c-7.2-0.2-11.4,3.6-11.4,3.6L31.5,30.6z"/>
		<path class="st0" d="M31.5,34.6c0,0,4.1-4.2,11.2-4.7c7.2-0.5,17.4,5.1,27-0.5l0-0.8C60,33.9,49.9,27.8,42.8,28
			c-7.2,0.2-11.4,4.3-11.4,4.3L31.5,34.6z"/>
		<path class="st0" d="M31.5,38.7c0,0,4.1-4.5,11.2-5.4c7.2-0.9,17.4,4.1,27-2.1l0-0.8c-9.7,5.8-19.8,0.3-26.9,1
			c-7.2,0.7-11.4,5-11.4,5L31.5,38.7z"/>
		<path class="st0" d="M31.5,42.9c0,0,4.1-4.7,11.2-6.2c7.2-1.4,17.4,2.9,27-3.9l0-0.8c-9.7,6.4-19.8,1.7-26.9,2.8
			c-7.2,1.1-11.4,5.7-11.4,5.7L31.5,42.9z"/>
		<path class="st0" d="M31.5,47c0,0,4.1-5,11.2-6.8c7.2-1.8,17.4,1.9,27-5.5l0-0.8c-9.7,7-19.8,2.8-26.9,4.4
			c-7.2,1.5-11.4,6.4-11.4,6.4L31.5,47z"/>
		<path class="st0" d="M31.5,51c0,0,4.1-5.2,11.2-7.5c7.2-2.3,17.4,0.8,27-7.1l0-0.8c-9.7,7.6-19.8,4-26.9,6
			c-7.2,2-11.4,7.1-11.4,7.1L31.5,51z"/>
		<path class="st0" d="M31.5,55.1c0,0,4.1-5.5,11.2-8.2c7.2-2.7,17.4-0.2,27-8.7l0-0.8C60,45.5,49.9,42.6,42.8,45
			c-7.2,2.4-11.4,7.8-11.4,7.8L31.5,55.1z"/>
		<path class="st0" d="M31.5,59.1c0,0,4.1-5.7,11.2-8.8c7.2-3.1,17.4-1.2,27-10.2l0-0.8C60,48,49.9,45.5,42.8,48.4
			c-7.2,2.8-11.4,8.4-11.4,8.4L31.5,59.1z"/>
		<path class="st0" d="M31.5,63.1c0,0,4.1-5.9,11.2-9.5c7.2-3.5,17.4-2.2,27-11.8l0-0.8c-9.7,9.3-19.8,7.4-26.9,10.7
			c-7.2,3.2-11.4,9-11.4,9L31.5,63.1z"/>
		<path class="st0" d="M31.5,67.2c0,0,4.1-6.2,11.2-10.1c7.2-3.9,17.4-3.3,27-13.4l0-0.8c-9.7,9.8-19.8,8.6-26.9,12.3
			c-7.2,3.7-11.4,9.7-11.4,9.7L31.5,67.2z"/>
		<path class="st0" d="M31.5,71.3c0,0,4.1-6.4,11.2-10.8c7.2-4.4,17.4-4.3,27-15.1l0-0.8C60,55,49.9,54.4,42.8,58.5
			c-7.2,4.1-11.4,10.4-11.4,10.4L31.5,71.3z"/>
	</g>
	<polygon class="st0" points="51.9,24.9 51.9,56 61.5,56 61.5,33.7 65.8,33.7 65.8,56 75.6,56 75.6,33.7 79.9,33.7 79.9,56 89.7,56
		89.7,24.9 	"/>
	<g>
		<path class="st0" d="M52.1,59.1h2.6l1.9,3.5l1.9-3.5H61v5.4h-1.6v-3.9h0l-2.2,3.9h-1.2l-2.2-3.9h0v3.9h-1.6V59.1z"/>
		<path class="st0" d="M61.5,63.2c0-1,0.7-1.1,2.1-1.1c0.8,0,1.2,0,1.5,0.3v-0.3c0-0.4-0.1-0.5-0.7-0.5h-0.8c-0.4,0-0.5,0-0.6,0.3
			h-1.4c0-1,0.5-1.2,1.7-1.2h1.7c1,0,1.5,0.5,1.5,1.4v2.5h-1.4v-0.4c-0.4,0.4-0.5,0.5-1.3,0.5h-1c-0.9,0-1.4-0.2-1.4-1.1V63.2z
			 M64.1,63.7c1,0,1.1-0.1,1.1-0.4c0-0.3-0.1-0.4-0.9-0.4h-0.6c-0.6,0-0.7,0.1-0.7,0.4c0,0.2,0.2,0.3,0.8,0.3H64.1z"/>
		<path class="st0" d="M68.4,62.6l-1.5-1.8h1.9l0.7,1l0.7-1h1.9l-1.5,1.8l1.6,2h-1.8l-0.9-1.3l-0.9,1.3h-1.8L68.4,62.6z"/>
		<path class="st0" d="M72,60.7h1.6l0.9,2.8h0l1-2.8h1.3l1,2.8h0l0.9-2.8h1.6l-1.5,3.8h-1.9l-0.7-2.1h0l-0.7,2.1h-1.9L72,60.7z"/>
		<path class="st0" d="M80.3,62.4c0-1.4,0.7-1.8,1.8-1.8h1c1.5,0,2.2,0.3,2.2,1.7V63h-3.5v0.2c0,0.4,0.3,0.5,0.9,0.5h0.4
			c0.8,0,0.8-0.2,0.8-0.4h1.4v0.2c0,1-0.9,1.2-1.9,1.2h-1.1c-1,0-2-0.2-2-1.8V62.4z M83.9,62.1c0-0.5-0.2-0.5-1.1-0.5
			c-0.9,0-1.1,0.1-1.1,0.5H83.9z"/>
		<path class="st0" d="M85.9,59.1h1.4v5.4h-1.4V59.1z"/>
		<path class="st0" d="M88.2,59.1h1.4v5.4h-1.4V59.1z"/>
	</g>
	<g>
		<path class="st0" d="M91.8,61c0-1.6,0.9-2,2.5-2H97c2,0,2.3,0.7,2.3,1.7V61h-1.7c0-0.5-0.3-0.6-0.9-0.6h-1.9
			c-0.9,0-1.1,0.2-1.1,1.1v0.7c0,0.9,0.2,1.1,1.1,1.1h1.9c0.5,0,0.9-0.1,0.9-0.6v-0.2h-2.2v-1.1h3.9V63c0,1.6-0.8,1.6-2.8,1.6h-2.1
			c-1.6,0-2.5-0.4-2.5-2V61z"/>
		<path class="st0" d="M99.9,60.7h1.4v0.7h0c0.2-0.6,0.8-0.8,1.5-0.8c1.1,0,1.5,0.5,1.5,1.5c0,0.1,0,0.2,0,0.3H103
			c0-0.5-0.1-0.7-0.7-0.7c-0.5,0-0.9,0.2-0.9,0.6v2.1h-1.5V60.7z"/>
		<path class="st0" d="M104.7,62.2c0-1.3,0.9-1.5,1.7-1.5h2.3c0.8,0,1.7,0.3,1.7,1.5v0.9c0,1.3-0.9,1.5-1.7,1.5h-2.3
			c-0.8,0-1.7-0.3-1.7-1.5V62.2z M106.3,62.8c0,0.5,0.3,0.7,1,0.7h0.4c1,0,1.2-0.1,1.2-0.6v-0.5c0-0.5-0.2-0.6-1.2-0.6h-0.4
			c-0.7,0-1,0.2-1,0.7V62.8z"/>
		<path class="st0" d="M116.3,64.6h-1.5V64h0c-0.3,0.5-0.8,0.7-1.6,0.7c-0.9,0-2.2,0-2.2-1.7v-2.2h1.5v2.2c0,0.4,0.3,0.6,1,0.6h0.3
			c0.6,0,1-0.3,1-0.8v-1.9h1.5V64.6z"/>
		<path class="st0" d="M117.1,60.7h1.5v0.6h0c0.2-0.3,0.5-0.6,1.4-0.6h0.4c1.9,0,2.2,0.7,2.2,1.6V63c0,1-0.2,1.6-2.2,1.6h-0.3
			c-0.9,0-1.2-0.1-1.5-0.7h0v2h-1.5V60.7z M118.6,62.8c0,0.6,0.3,0.7,0.9,0.7h0.8c0.7,0,0.8-0.2,0.8-0.7v-0.4c0-0.4-0.1-0.7-0.8-0.7
			h-0.8c-0.6,0-0.9,0.1-0.9,0.7V62.8z"/>
	</g>
	<g>
		<polygon class="st0" points="113.8,40.2 113.8,47.2 100.3,47.2 100.3,40.2 100.3,33.7 113.8,33.7 122.6,33.7 122.6,24.9
			91.5,24.9 91.5,56 122.6,56 122.6,40.2 		"/>
		<rect x="105.3" y="39.2" class="st0" width="17.3" height="5.4"/>
	</g>
	<g>
		<path class="st0" d="M53.9,68.5c-0.2-0.3-0.4-0.4-0.7-0.4c-0.4,0-0.8,0.3-0.8,0.7c0,0.4,0.3,0.6,0.6,0.7l0.2,0.1
			c0.2,0.1,0.5,0.2,0.5,0.5c0,0.3-0.2,0.6-0.5,0.6c-0.3,0-0.6-0.2-0.6-0.5l-0.4,0.1c0.1,0.5,0.4,0.8,0.9,0.8c0.5,0,0.9-0.4,0.9-0.9
			c0-0.5-0.3-0.7-0.7-0.9l-0.2-0.1c-0.2-0.1-0.4-0.2-0.4-0.4c0-0.3,0.3-0.4,0.5-0.4c0.2,0,0.4,0.1,0.5,0.3L53.9,68.5z"/>
		<path class="st0" d="M56.5,71h-0.4v-2.5h-0.7v-0.3h1.7v0.3h-0.7V71z"/>
		<path class="st0" d="M60.6,71h-0.4l-0.8-1.2h-0.1V71h-0.4v-2.9h0.4c0.3,0,0.5,0,0.8,0.1c0.2,0.1,0.4,0.4,0.4,0.7
			c0,0.4-0.3,0.8-0.7,0.8L60.6,71z M59.1,69.5h0.1c0.4,0,0.8-0.1,0.8-0.5c0-0.4-0.4-0.5-0.8-0.5h-0.1V69.5z"/>
		<path class="st0" d="M62.6,70.3L62.3,71h-0.4l1.4-3l1.4,3h-0.4l-0.3-0.7H62.6z M63.2,68.8l-0.5,1.2h1L63.2,68.8z"/>
		<path class="st0" d="M66.6,71h-0.4v-2.5h-0.7v-0.3h1.7v0.3h-0.7V71z"/>
		<path class="st0" d="M68.9,68.1h1.5v0.3h-1.2v0.8h1.1v0.3h-1.1v1.1h1.2V71h-1.5V68.1z"/>
		<path class="st0" d="M73.7,69.5v0.3h0.7c0,0.5-0.5,0.9-0.9,0.9c-0.6,0-1.1-0.6-1.1-1.2c0-0.6,0.5-1.2,1.1-1.2
			c0.4,0,0.7,0.2,0.9,0.5l0.3-0.2c-0.3-0.4-0.7-0.6-1.2-0.6c-0.8,0-1.5,0.7-1.5,1.5c0,0.8,0.6,1.5,1.4,1.5s1.4-0.6,1.4-1.4v-0.1
			H73.7z"/>
		<path class="st0" d="M76.3,68.1h0.4l0.7,1.2l0.7-1.2h0.4l-0.9,1.6V71h-0.4v-1.2L76.3,68.1z"/>
		<path class="st0" d="M84.2,70.6c-0.2,0.3-0.5,0.4-0.9,0.4c-0.5,0-0.9-0.4-0.9-0.8c0-0.4,0.2-0.6,0.5-0.8l0.2-0.1
			c-0.2-0.2-0.3-0.4-0.3-0.6c0-0.4,0.3-0.6,0.7-0.6c0.4,0,0.7,0.2,0.7,0.6c0,0.3-0.3,0.5-0.5,0.7l0.6,0.7l0.3-0.4l0.2,0.2l-0.4,0.4
			l0.5,0.6h-0.4L84.2,70.6z M83.3,69.6c-0.2,0.1-0.5,0.3-0.5,0.6s0.3,0.5,0.5,0.5c0.3,0,0.5-0.2,0.7-0.4L83.3,69.6L83.3,69.6z
			 M83.4,69.1c0.1-0.1,0.3-0.2,0.3-0.4c0-0.2-0.1-0.3-0.3-0.3c-0.2,0-0.3,0.1-0.3,0.3c0,0.1,0.1,0.3,0.2,0.4L83.4,69.1L83.4,69.1z"
			/>
		<path class="st0" d="M89.2,71h-0.4v-2.9h0.4V71z"/>
		<path class="st0" d="M91.1,68l2.2,2.3v-2.1h0.4v3l-2.2-2.3V71h-0.4V68z"/>
		<path class="st0" d="M96.4,70.2l0.9-2.1h0.4l-1.2,3l-1.2-3h0.4L96.4,70.2z"/>
		<path class="st0" d="M99.2,68.1h1.5v0.3h-1.2v0.8h1.1v0.3h-1.1v1.1h1.2V71h-1.5V68.1z"/>
		<path class="st0" d="M103.8,68.7c-0.1-0.2-0.2-0.3-0.5-0.3c-0.2,0-0.5,0.2-0.5,0.4c0,0.2,0.2,0.3,0.4,0.4l0.2,0.1
			c0.4,0.2,0.7,0.4,0.7,0.9c0,0.5-0.4,0.9-0.9,0.9c-0.5,0-0.8-0.3-0.9-0.8l0.4-0.1c0,0.3,0.2,0.5,0.6,0.5c0.3,0,0.5-0.3,0.5-0.6
			c0-0.3-0.2-0.4-0.5-0.5l-0.2-0.1c-0.3-0.1-0.6-0.3-0.6-0.7c0-0.5,0.4-0.7,0.8-0.7c0.3,0,0.6,0.2,0.7,0.4L103.8,68.7z"/>
		<path class="st0" d="M106.7,71h-0.4v-2.5h-0.7v-0.3h1.7v0.3h-0.7V71z"/>
		<path class="st0" d="M109.4,69.1L109.4,69.1l-0.3,1.9h-0.4l0.6-3l1,2.3l1-2.3l0.6,3h-0.4l-0.3-1.9h0l-0.9,2L109.4,69.1z"/>
		<path class="st0" d="M113.5,68.1h1.5v0.3h-1.2v0.8h1.1v0.3h-1.1v1.1h1.2V71h-1.5V68.1z"/>
		<path class="st0" d="M116.8,68l2.2,2.3v-2.1h0.4v3l-2.2-2.3V71h-0.4V68z"/>
		<path class="st0" d="M121.9,71h-0.4v-2.5h-0.7v-0.3h1.7v0.3h-0.7V71z"/>
	</g>
</g>
</svg>
