<svg version="1.1" id="gelderlandLogo" xmlns="http://www.w3.org/2000/svg" xmlns:xlink="http://www.w3.org/1999/xlink" x="0px" y="0px"
	 width="160px" height="80px" viewBox="0 0 160 80" style="enable-background:new 0 0 160 80;" xml:space="preserve">
<style type="text/css">
	.st0{fill:#231F20;}
	.st1{fill:none;}
</style>
<g>
	<path class="st0" d="M24.49,59.01c-5.55,0-8.75-2.53-8.75-8.26c0-4.85,3.34-8.59,8.66-8.59c2.76,0,4.27,0.58,5.48,1.07v3.64
		c-0.09,0-1,0-1.19,0c-0.6-1.69-1.93-2.92-4.38-2.92c-3.3,0-5.76,1.93-5.76,6.64c0,4.55,2.86,6.38,6.54,6.4
		c0.6,0,1.77-0.14,2.18-0.21v-4.83h2.62v6.24C28.41,58.78,26.21,59.01,24.49,59.01"/>
	<path class="st0" d="M35.3,52.67c0.16,3.64,1.93,4.25,4.32,4.25c0.88,0,2.2-0.12,3.34-0.4l0.44,1.48
		c-1.02,0.63-2.83,1.05-4.36,1.05c-4.04,0-6.38-1.09-6.38-6.29c0-3.69,2.34-6.87,5.96-6.87c3.64,0,5.04,2.35,5.04,5.99v0.79H35.3
		 M38.44,47.45c-1.76,0-3.02,1.42-3.16,3.78h5.55C40.83,48.82,40.18,47.45,38.44,47.45z"/>
	<path class="st0" d="M52.31,58.85h-6.8c-0.09-0.42-0.12-0.72-0.09-1.11l1.27-0.44c0.51-0.16,0.72-0.63,0.74-1.18l0.09-3.59V42.9
		H45.3v-1.3c0.93-0.21,2.72-0.49,3.78-0.49c0.63,0,0.98,0.25,0.98,0.95v10.45l0.09,4.08c0.02,0.39,0.04,0.54,0.32,0.6l1.93,0.39
		C52.41,57.99,52.41,58.52,52.31,58.85"/>
	<path class="st0" d="M63.64,59.06c-1.14,0-1.3-1.14-1.3-1.98c-0.7,0.7-1.86,1.9-3.43,1.9c-2.44,0-5.13-0.95-5.13-5.99
		c0-4.25,2.78-6.92,6.22-6.92c1.07,0,1.67,0.07,2.32,0.19v-3.34h-2.25v-1.3c1.02-0.23,2.69-0.51,3.74-0.51
		c0.77,0,1.07,0.21,1.07,0.97l-0.02,10.35l0.09,4.48h2.14l0.21,1.02C66.47,58.41,65.13,59.06,63.64,59.06 M62.32,47.96
		c-0.56-0.12-1.28-0.28-2.39-0.28c-2.78,0-3.43,2.3-3.43,5.34c0,2.76,1.3,3.71,3.2,3.71c1.16,0,1.93-0.49,2.53-0.77l0.09-3.53V47.96
		z"/>
	<path class="st0" d="M71.25,52.67c0.16,3.64,1.93,4.25,4.32,4.25c0.88,0,2.2-0.12,3.34-0.4l0.44,1.48
		c-1.02,0.63-2.83,1.05-4.36,1.05c-4.04,0-6.38-1.09-6.38-6.29c0-3.69,2.35-6.87,5.97-6.87c3.64,0,5.03,2.35,5.03,5.99v0.79H71.25
		 M74.38,47.45c-1.76,0-3.02,1.42-3.16,3.78h5.55C76.78,48.82,76.13,47.45,74.38,47.45z"/>
	<path class="st0" d="M90.91,48.68c-0.47-0.23-1.04-0.37-1.74-0.37c-1.39,0-2.48,0.33-2.97,0.84v3.34l0.09,3.99
		c0,0.4,0.05,0.53,0.32,0.58l2.58,0.47c0,0.35,0,1.02-0.12,1.32h-7.29c-0.09-0.54-0.12-0.81-0.09-1.14l1.07-0.49
		c0.47-0.21,0.84-0.67,0.84-1.53l0.07-3.2V47.8h-2.23v-1.35c0.95-0.21,2.62-0.51,3.76-0.51c0.6,0,0.95,0.21,0.95,0.88v0.97
		c0.6-0.95,1.97-1.88,3.53-1.88c0.86,0,1.49,0.16,1.83,0.35L90.91,48.68"/>
	<path class="st0" d="M99.22,58.85h-6.8c-0.09-0.42-0.12-0.72-0.09-1.11l1.28-0.44c0.51-0.16,0.72-0.63,0.74-1.18l0.09-3.59V42.9
		h-2.22v-1.3c0.93-0.21,2.71-0.49,3.78-0.49c0.63,0,0.97,0.25,0.97,0.95v10.45l0.09,4.08c0.02,0.39,0.05,0.54,0.33,0.6l1.93,0.39
		C99.31,57.99,99.31,58.52,99.22,58.85"/>
	<path class="st0" d="M109.92,59.01c-1.65,0-1.88-0.88-1.93-2c-0.56,0.58-2.13,2.02-4.22,2.02c-1.81,0-3.18-0.97-3.18-2.92
		c0-2.62,2.34-3.69,4.59-4.04c1.28-0.18,2.58-0.33,2.76-0.35v-1.74c0-1.58-0.72-2.04-2.95-2.04c-0.86,0-2.11,0.19-3.16,0.49
		l-0.44-1.76c1.37-0.54,2.81-0.77,4.23-0.77c1.79-0.02,4.83,0.09,4.83,3.48v3.14l0.16,4.43h2.27l0.16,0.95
		C112.52,58.41,110.77,59.01,109.92,59.01 M107.94,53.12c-0.09,0.02-1.44,0.16-2.44,0.37c-1.46,0.32-2.3,0.97-2.3,2.06
		c0,0.69,0.42,1.3,1.6,1.3c1.18,0,2.95-0.88,3.13-0.95V53.12z"/>
	<path class="st0" d="M129.2,58.85h-5.87c-0.07-0.39-0.12-0.81-0.07-1.21l0.7-0.42c0.46-0.28,0.63-0.74,0.63-1.14l0.07-3.57v-1.77
		c0-1.93-0.21-2.83-2.37-2.83c-1.35,0-2.92,0.56-3.53,0.88v3.72l0.07,3.99c0,0.39,0,0.63,0.33,0.7l1.76,0.39
		c0,0.37-0.02,0.93-0.11,1.26h-6.38c-0.07-0.35-0.09-0.77-0.09-1.11l1.11-0.49c0.46-0.19,0.7-0.77,0.72-1.21l0.07-3.53V47.8h-2.21
		v-1.32c1.02-0.23,2.74-0.49,3.81-0.49c0.65,0,0.88,0.23,0.88,0.83v0.72c0.9-0.67,2.3-1.65,4.5-1.65c3.72,0,3.97,1.77,3.97,4.25
		v2.37l0.07,4.27c0.02,0.33,0.04,0.42,0.32,0.47l1.74,0.35C129.32,57.99,129.3,58.57,129.2,58.85"/>
	<path class="st0" d="M140.64,59.06c-1.14,0-1.3-1.14-1.3-1.98c-0.7,0.7-1.86,1.9-3.43,1.9c-2.44,0-5.13-0.95-5.13-5.99
		c0-4.25,2.78-6.92,6.22-6.92c1.07,0,1.67,0.07,2.32,0.19v-3.34h-2.25v-1.3c1.02-0.23,2.69-0.51,3.74-0.51
		c0.77,0,1.07,0.21,1.07,0.97l-0.02,10.35l0.09,4.48h2.14l0.21,1.02C143.47,58.41,142.13,59.06,140.64,59.06 M139.32,47.96
		c-0.56-0.12-1.28-0.28-2.39-0.28c-2.79,0-3.43,2.3-3.43,5.34c0,2.76,1.3,3.71,3.2,3.71c1.16,0,1.93-0.49,2.53-0.77l0.09-3.53V47.96
		z"/>
	<path class="st0" d="M33.45,32.03c-0.74,0-1.08-0.02-1.48-0.09l0.07,3.5c0,0.25,0.07,0.39,0.45,0.46l1.38,0.27
		c0.02,0.2,0,0.43-0.09,0.65h-5.25c-0.07-0.33-0.07-0.42-0.05-0.58l0.67-0.25c0.41-0.18,0.66-0.61,0.66-1.09L29.88,27v-3.93h-1.73
		v-0.7c0.69-0.14,2-0.39,2.95-0.39c0.51,0,0.72,0.2,0.72,0.66l0.02,0.43c0.58-0.58,1.53-1.09,2.62-1.09c2.64,0,3.97,1.45,3.97,4.79
		C38.44,30.83,35.97,32.03,33.45,32.03 M33.87,23.09c-0.91,0-1.65,0.4-2.01,0.63v3.31l0.06,3.83c0.38,0.09,0.72,0.18,1.59,0.18
		c1.98,0,2.82-1.85,2.82-3.94C36.32,25.1,35.66,23.09,33.87,23.09z"/>
	<path class="st0" d="M47.23,23.88c-0.38-0.18-0.97-0.34-1.51-0.34c-1.07,0-1.63,0.3-2.16,0.65v2.79l0.07,3.44
		c0,0.26,0.04,0.39,0.25,0.43l1.98,0.36c0,0.18-0.02,0.45-0.08,0.67h-5.6c-0.06-0.25-0.09-0.32-0.07-0.52l0.81-0.4
		c0.36-0.16,0.65-0.53,0.65-1.2l0.06-2.77v-3.93h-1.73v-0.73c0.74-0.14,2.02-0.38,2.91-0.38c0.45,0,0.72,0.16,0.72,0.66v0.94
		c0.53-0.74,1.58-1.62,2.79-1.62c0.67,0,1.12,0.13,1.35,0.25L47.23,23.88"/>
	<path class="st0" d="M52.92,32.01c-2.8,0-4.48-1.42-4.48-4.84c0-2.63,2.09-5.2,4.64-5.2c3.04,0,4.54,1.49,4.54,4.91
		C57.63,29.49,55.6,32.01,52.92,32.01 M52.92,23c-1.95,0-2.36,2.01-2.36,3.89c0,2.05,0.52,3.99,2.66,3.99
		c1.94,0,2.27-1.87,2.27-3.76C55.49,25.09,55.09,23,52.92,23z"/>
	<path class="st0" d="M68.28,22.58c-0.34,0.31-0.63,0.83-0.98,1.73l-3.08,7.58l-1.42,0.43l-3-8.34c-0.14-0.42-0.43-0.98-0.84-1.25
		c0-0.2,0-0.44,0.07-0.63h3.88c0,0.2-0.02,0.66-0.05,0.77h-1.16l2.34,7.27l2.21-5.89c0.29-0.76,0.11-1.19-0.29-1.36l-0.61-0.22
		c0-0.21-0.02-0.38,0.03-0.57h2.93C68.3,22.24,68.3,22.44,68.28,22.58"/>
	<path class="st0" d="M74.69,31.88h-5.29c-0.06-0.25-0.07-0.32-0.07-0.56l1.1-0.38c0.29-0.09,0.51-0.52,0.53-0.88L71.02,27v-3.93
		h-1.74v-0.75c0.81-0.16,2.1-0.38,2.93-0.38c0.52,0,0.8,0.16,0.8,0.7L72.98,27l0.06,3.44c0,0.34,0.1,0.44,0.28,0.48l1.46,0.31
		C74.78,31.39,74.76,31.66,74.69,31.88 M71.96,19.94c-0.38,0-1.49-1.13-1.49-1.49c0-0.42,1.12-1.48,1.49-1.48
		c0.36,0,1.49,1.1,1.49,1.48C73.45,18.78,72.37,19.94,71.96,19.94z"/>
	<path class="st0" d="M87.48,31.88h-4.6c-0.05-0.25-0.09-0.4-0.07-0.6l0.74-0.33c0.29-0.13,0.47-0.64,0.49-0.93L84.07,27v-1.37
		c0-1.6-0.25-2.28-1.93-2.28c-1.09,0-1.94,0.29-2.71,0.65V27l0.05,3.32c0,0.41,0.04,0.57,0.32,0.63l1.46,0.31
		c0,0.16-0.02,0.43-0.09,0.63h-5.09c-0.03-0.25-0.07-0.31-0.05-0.52l0.84-0.34c0.32-0.15,0.54-0.52,0.56-1.04L77.47,27v-3.93H75.8
		v-0.7c0.77-0.15,2.1-0.37,2.9-0.37c0.51,0,0.7,0.16,0.7,0.6v0.76c0.74-0.58,1.89-1.45,3.6-1.45c2.7,0,3.02,1.34,3.02,3.25V27
		l0.03,3.55c0.02,0.28,0.09,0.38,0.33,0.41l1.18,0.27C87.57,31.39,87.55,31.68,87.48,31.88"/>
	<path class="st0" d="M95.87,24.59c-0.54-0.76-1.41-1.68-2.37-1.68c-1.76,0-2.64,1.07-2.64,3.68c0,2.23,0.83,4.03,3.2,4.03
		c0.83,0,1.67-0.14,2.39-0.38l0.24,0.59c-0.51,0.51-1.59,1.21-3.33,1.21c-3.2,0-4.51-1.32-4.51-4.95c0-2.57,1.92-5.22,4.8-5.22
		c1.1,0,3.09,0.2,3.09,1.31C96.74,23.78,96.43,24.26,95.87,24.59"/>
	<path class="st0" d="M103.27,31.88h-5.29c-0.05-0.25-0.07-0.32-0.07-0.56l1.1-0.38c0.31-0.09,0.52-0.52,0.54-0.88L99.6,27v-3.93
		h-1.75v-0.75c0.79-0.16,2.11-0.38,2.92-0.38c0.51,0,0.78,0.16,0.78,0.7L101.54,27l0.05,3.44c0,0.34,0.11,0.44,0.31,0.48l1.45,0.31
		C103.36,31.39,103.34,31.66,103.27,31.88 M100.54,19.94c-0.38,0-1.5-1.13-1.5-1.49c0-0.42,1.14-1.48,1.5-1.48
		c0.35,0,1.49,1.1,1.49,1.48C102.03,18.78,100.93,19.94,100.54,19.94z"/>
	<path class="st0" d="M106.46,27.04c0.16,2.85,1.56,3.53,3.47,3.53c0.69,0,1.72-0.12,2.59-0.32l0.25,0.64
		c-0.69,0.65-2.08,1.14-3.48,1.14c-3.12,0-4.82-1.05-4.82-4.77c0-2.9,1.87-5.37,4.66-5.37c2.71,0,3.81,1.93,3.81,4.68v0.47H106.46
		 M108.77,22.8c-1.26,0-2.29,0.99-2.31,3.34h4.29C110.76,24.23,110.34,22.8,108.77,22.8z"/>
	<rect x="6.01" y="14.78" class="st0" width="146.9" height="0.86"/>
	<rect x="6.01" y="36.81" class="st0" width="20.2" height="0.86"/>
	<rect x="6.01" y="31.3" class="st0" width="11.02" height="0.86"/>
	<rect x="6.01" y="25.8" class="st0" width="11.02" height="0.86"/>
	<rect x="6.01" y="20.29" class="st0" width="11.02" height="0.86"/>
	<rect x="36.31" y="36.81" class="st0" width="116.6" height="0.86"/>
	<rect x="6.01" y="66.19" class="st0" width="146.9" height="0.86"/>
	<rect x="-8.68" y="-0.88" class="st1" width="177.35" height="81.77"/>
</g>
</svg>
