<?xml version="1.0" encoding="utf-8"?>
<!-- Generator: Adobe Illustrator 19.0.0, SVG Export Plug-In . SVG Version: 6.00 Build 0)  -->
<svg version="1.1" id="Layer_1" xmlns="http://www.w3.org/2000/svg" xmlns:xlink="http://www.w3.org/1999/xlink" x="0px" y="0px"
	 width="250px" height="36px" viewBox="0 0 250 36" enable-background="new 0 0 250 36" xml:space="preserve">
<g id="XMLID_18_">
	<rect id="XMLID_16_" x="0" y="0" fill="#FFFFFF" width="8" height="8"/>
	<rect id="XMLID_15_" x="9.3" y="0" fill="#FFFFFF" width="8" height="8"/>
	<rect id="XMLID_14_" x="18.6" y="0" fill="#FFFFFF" width="8" height="8"/>
	<rect id="XMLID_13_" x="28" y="0" fill="#FFFFFF" width="8" height="8"/>
	<rect id="XMLID_12_" x="0" y="9.3" fill="#FFFFFF" width="8" height="8"/>
	<rect id="XMLID_11_" x="9.3" y="9.3" fill="#FFFFFF" width="8" height="8"/>
	<rect id="XMLID_10_" x="18.6" y="9.3" fill="#FFFFFF" width="8" height="8"/>
	<rect id="XMLID_9_" x="28" y="9.3" fill="#FFFFFF" width="8" height="8"/>
	<rect id="XMLID_8_" x="0" y="18.6" fill="#FFFFFF" width="8" height="8"/>
	<rect id="XMLID_7_" x="9.3" y="18.6" fill="#FFFFFF" width="8" height="8"/>
	<rect id="XMLID_6_" x="18.6" y="18.6" fill="#FFFFFF" width="8" height="8"/>
	<rect id="XMLID_5_" x="28" y="18.6" fill="#FFFFFF" width="8" height="8"/>
	<rect id="XMLID_4_" x="0" y="28" fill="#FFFFFF" width="8" height="8"/>
	<rect id="XMLID_3_" x="9.3" y="28" fill="#FFFFFF" width="8" height="8"/>
	<rect id="XMLID_2_" x="18.6" y="28" fill="#FFFFFF" width="8" height="8"/>
	<rect id="XMLID_1_" x="28" y="28" fill="#FFFFFF" width="8" height="8"/>
</g>
<path id="XMLID_19_" fill="#FFFFFF" d="M237.7,19c0-0.7,0.1-1.3,0.3-1.8c0.2-0.5,0.5-0.9,0.8-1.3c0.3-0.3,0.7-0.6,1.1-0.7
	c0.4-0.2,0.9-0.3,1.3-0.3c1.2,0,2.1,0.4,2.7,1.3c0.5,0.9,0.8,2,0.8,3.5c0,0.9-0.1,1.7-0.3,2.4c-0.2,0.7-0.5,1.2-0.9,1.7
	c-0.4,0.4-0.9,0.8-1.4,1c-0.6,0.2-1.2,0.3-1.8,0.3c-0.6,0-1.1,0-1.4-0.1c-0.4-0.1-0.7-0.1-1.1-0.3V19z M234.9,33.6
	c0.2,0,0.4,0.1,0.7,0.1c0.3,0,0.5,0,0.7,0c0.2,0,0.4,0,0.7,0c0.3,0,0.5,0,0.7-0.1v-6.5c0.3,0.1,0.7,0.2,1.1,0.2
	c0.4,0.1,0.8,0.1,1.3,0.1c2.4,0,4.3-0.7,5.6-2.1c1.3-1.4,2-3.3,2-5.7c0-1.2-0.1-2.3-0.4-3.2c-0.3-0.9-0.7-1.6-1.2-2.2
	c-0.5-0.6-1.1-1-1.8-1.3c-0.7-0.3-1.5-0.4-2.3-0.4c-0.6,0-1.1,0.1-1.5,0.2c-0.5,0.1-0.9,0.3-1.2,0.5c-0.4,0.2-0.7,0.5-0.9,0.7
	c-0.3,0.3-0.5,0.6-0.7,0.9c0-0.1,0-0.2,0-0.4c0-0.2-0.1-0.4-0.1-0.6c0-0.2-0.1-0.4-0.1-0.6c0-0.2-0.1-0.3-0.1-0.3
	c-0.2,0-0.4-0.1-0.6-0.1c-0.2,0-0.4,0-0.6,0c-0.2,0-0.4,0-0.6,0c-0.2,0-0.4,0-0.6,0.1V33.6z M228.1,18.2c-0.3,0-0.6-0.1-1-0.1
	c-0.4,0-0.9,0-1.5,0c-0.8,0-1.6,0.1-2.3,0.3c-0.7,0.2-1.4,0.5-1.9,0.9c-0.6,0.4-1,0.9-1.3,1.5c-0.3,0.6-0.5,1.3-0.5,2.1
	c0,0.8,0.1,1.5,0.4,2.1c0.3,0.6,0.7,1,1.2,1.4c0.5,0.4,1.1,0.6,1.9,0.8c0.7,0.2,1.6,0.3,2.5,0.3c1,0,1.9-0.1,2.8-0.2
	c0.9-0.2,1.7-0.3,2.4-0.5v-8.9c0-1.9-0.5-3.2-1.4-4c-1-0.8-2.4-1.3-4.2-1.3c-0.7,0-1.4,0.1-2.2,0.2c-0.8,0.1-1.5,0.3-2.1,0.5
	c0,0.9,0.2,1.6,0.5,2.2c0.5-0.2,1.1-0.3,1.7-0.4c0.6-0.1,1.2-0.2,1.8-0.2c1.1,0,1.9,0.2,2.4,0.6c0.6,0.4,0.8,1.2,0.8,2.3V18.2z
	 M228.1,24.9c-0.4,0.1-0.8,0.2-1.2,0.2c-0.5,0-0.9,0.1-1.3,0.1c-0.3,0-0.7,0-1.1-0.1c-0.4,0-0.7-0.1-1-0.3c-0.3-0.2-0.6-0.4-0.8-0.7
	c-0.2-0.3-0.3-0.8-0.3-1.3c0-0.9,0.3-1.5,0.9-1.9c0.6-0.4,1.5-0.6,2.6-0.6c0.3,0,0.7,0,1.1,0.1c0.4,0,0.8,0.1,1.1,0.1V24.9z
	 M208.2,19.7c-0.5-0.6-0.7-1.3-0.7-2.1c0-0.9,0.2-1.6,0.7-2.2c0.5-0.6,1.2-0.8,2.2-0.8c1,0,1.7,0.3,2.2,0.8c0.5,0.6,0.7,1.3,0.7,2.2
	c0,0.9-0.2,1.6-0.7,2.1c-0.5,0.6-1.2,0.8-2.2,0.8C209.4,20.5,208.6,20.2,208.2,19.7 M212.3,27.5c0.9,0,1.6,0.2,1.9,0.5
	c0.4,0.3,0.5,0.7,0.5,1.3c0,0.7-0.4,1.4-1.3,1.8c-0.8,0.5-2,0.7-3.5,0.7c-0.5,0-1,0-1.4-0.1c-0.4-0.1-0.8-0.2-1.1-0.3
	c-0.3-0.2-0.5-0.4-0.7-0.6c-0.2-0.3-0.2-0.6-0.2-1c0-0.7,0.2-1.2,0.6-1.7c0.4-0.5,1-0.7,1.9-0.7L212.3,27.5z M209.2,25.2
	c-0.8,0-1.4-0.1-1.6-0.4c-0.2-0.3-0.4-0.5-0.4-0.9c0-0.4,0.1-0.7,0.4-1c0.2-0.3,0.5-0.5,0.8-0.7c0.6,0.2,1.3,0.3,2.1,0.3
	c0.8,0,1.6-0.1,2.3-0.3s1.3-0.6,1.8-1c0.5-0.4,0.9-1,1.2-1.6c0.3-0.6,0.4-1.3,0.4-2.1c0-0.5-0.1-0.9-0.2-1.3c-0.1-0.4-0.3-0.7-0.5-1
	h2.5c0-0.2,0.1-0.4,0.1-0.7c0-0.2,0-0.4,0-0.6c0-0.4,0-0.8-0.1-1.2c-0.8,0-1.5,0.1-2.1,0.3c-0.6,0.2-1.1,0.4-1.5,0.7
	c-0.5-0.4-1.1-0.7-1.7-0.9c-0.7-0.2-1.4-0.4-2.3-0.4c-0.9,0-1.8,0.1-2.5,0.4c-0.7,0.3-1.3,0.6-1.8,1.1c-0.5,0.5-0.9,1-1.1,1.6
	c-0.3,0.6-0.4,1.3-0.4,2c0,0.9,0.2,1.6,0.6,2.3c0.4,0.7,0.9,1.2,1.5,1.7c-0.5,0.4-0.9,0.8-1.2,1.3c-0.3,0.5-0.5,1.1-0.5,1.8
	c0,0.5,0.1,1,0.4,1.3c0.2,0.4,0.6,0.7,0.9,0.9c-0.6,0.4-1.2,0.8-1.6,1.4c-0.4,0.6-0.6,1.3-0.6,2c0,1.3,0.5,2.2,1.5,2.8
	c1,0.6,2.5,0.9,4.4,0.9c1.1,0,2.1-0.1,3-0.3c0.9-0.2,1.8-0.6,2.4-1c0.7-0.4,1.2-1,1.6-1.6c0.4-0.6,0.6-1.3,0.6-2
	c0-1.2-0.4-2.1-1.1-2.8c-0.7-0.7-1.9-1-3.6-1.1L209.2,25.2z M185.2,18.6c0.1-1.2,0.5-2.2,1.1-2.9c0.6-0.7,1.5-1,2.6-1
	c0.6,0,1.1,0.1,1.5,0.3c0.4,0.2,0.8,0.5,1,0.9c0.3,0.4,0.5,0.8,0.6,1.2c0.1,0.5,0.2,1,0.2,1.5H185.2z M194.9,20.6
	c0-0.2,0-0.4,0.1-0.7c0-0.3,0-0.6,0-0.8c0-0.9-0.1-1.8-0.4-2.6c-0.3-0.8-0.6-1.5-1.1-2.1c-0.5-0.6-1.1-1-1.9-1.4
	c-0.7-0.3-1.6-0.5-2.6-0.5c-1.1,0-2.1,0.2-3,0.6c-0.8,0.4-1.5,0.9-2.1,1.6c-0.6,0.7-1,1.5-1.2,2.4c-0.3,0.9-0.4,1.9-0.4,3
	c0,1.1,0.1,2.1,0.4,3c0.3,0.9,0.7,1.7,1.3,2.3c0.6,0.7,1.4,1.2,2.3,1.5c0.9,0.4,2,0.5,3.3,0.5c0.9,0,1.7-0.1,2.4-0.2
	c0.7-0.1,1.4-0.3,2-0.6c0-0.4-0.1-0.8-0.2-1.2c-0.1-0.4-0.2-0.7-0.4-1c-1.2,0.5-2.4,0.7-3.8,0.7c-1.5,0-2.6-0.4-3.4-1.1
	c-0.8-0.7-1.2-1.9-1.2-3.4H194.9z M167.1,27.1c0.2,0,0.4,0.1,0.7,0.1c0.3,0,0.5,0,0.7,0c0.2,0,0.4,0,0.7,0c0.3,0,0.5,0,0.7-0.1v-7.3
	c0-0.9,0.1-1.6,0.3-2.2c0.2-0.6,0.5-1.1,0.8-1.5c0.4-0.4,0.8-0.7,1.2-0.8c0.5-0.2,0.9-0.3,1.4-0.3c0.9,0,1.6,0.3,2,0.9
	c0.4,0.6,0.7,1.6,0.7,2.9v8.3c0.2,0,0.4,0.1,0.7,0.1c0.2,0,0.5,0,0.7,0c0.2,0,0.4,0,0.7,0c0.3,0,0.5,0,0.7-0.1v-9
	c0-1.8-0.4-3.2-1.2-4.2c-0.8-0.9-2-1.4-3.6-1.4c-0.6,0-1.1,0.1-1.6,0.2c-0.5,0.2-0.9,0.4-1.3,0.6c-0.4,0.3-0.7,0.5-0.9,0.8
	c-0.2,0.3-0.5,0.6-0.6,0.8V6.7c-0.2,0-0.4-0.1-0.7-0.1c-0.3,0-0.5,0-0.7,0c-0.2,0-0.4,0-0.7,0c-0.2,0-0.5,0-0.7,0.1V27.1z
	 M157.7,23.1c0,1.5,0.4,2.6,1.1,3.2c0.8,0.6,1.8,1,3.1,1c0.5,0,0.9,0,1.3-0.1c0.4,0,0.8-0.1,1.2-0.2c0-0.3,0-0.6,0-1
	c0-0.4-0.1-0.8-0.2-1.1c-0.2,0.1-0.5,0.1-0.8,0.2c-0.3,0-0.6,0.1-0.9,0.1c-0.4,0-0.7,0-1-0.1c-0.3-0.1-0.5-0.3-0.6-0.5
	c-0.2-0.3-0.3-0.6-0.3-1.1c-0.1-0.5-0.1-1.1-0.1-1.9V15h3.6c0-0.2,0.1-0.4,0.1-0.6c0-0.2,0-0.4,0-0.6c0-0.4,0-0.7-0.1-1.1h-3.6V9.3
	h-0.2l-4.8,5.3l0.1,0.4h2.2V23.1z M138.1,19.7c-0.5-0.6-0.7-1.3-0.7-2.1c0-0.9,0.2-1.6,0.7-2.2c0.5-0.6,1.2-0.8,2.2-0.8
	c1,0,1.7,0.3,2.2,0.8c0.5,0.6,0.7,1.3,0.7,2.2c0,0.9-0.2,1.6-0.7,2.1c-0.5,0.6-1.2,0.8-2.2,0.8C139.3,20.5,138.6,20.2,138.1,19.7
	 M142.2,27.5c0.9,0,1.6,0.2,1.9,0.5c0.4,0.3,0.5,0.7,0.5,1.3c0,0.7-0.4,1.4-1.3,1.8c-0.8,0.5-2,0.7-3.5,0.7c-0.5,0-1,0-1.4-0.1
	c-0.4-0.1-0.8-0.2-1.1-0.3c-0.3-0.2-0.5-0.4-0.7-0.6c-0.2-0.3-0.2-0.6-0.2-1c0-0.7,0.2-1.2,0.6-1.7c0.4-0.5,1-0.7,1.9-0.7
	L142.2,27.5z M139.1,25.2c-0.8,0-1.4-0.1-1.6-0.4c-0.2-0.3-0.4-0.5-0.4-0.9c0-0.4,0.1-0.7,0.4-1c0.2-0.3,0.5-0.5,0.8-0.7
	c0.6,0.2,1.3,0.3,2.1,0.3c0.8,0,1.6-0.1,2.3-0.3c0.7-0.2,1.3-0.6,1.8-1c0.5-0.4,0.9-1,1.2-1.6c0.3-0.6,0.4-1.3,0.4-2.1
	c0-0.5-0.1-0.9-0.2-1.3c-0.1-0.4-0.3-0.7-0.5-1h2.5c0-0.2,0.1-0.4,0.1-0.7c0-0.2,0-0.4,0-0.6c0-0.4,0-0.8-0.1-1.2
	c-0.8,0-1.5,0.1-2.1,0.3c-0.6,0.2-1.1,0.4-1.5,0.7c-0.5-0.4-1.1-0.7-1.7-0.9c-0.7-0.2-1.4-0.4-2.3-0.4c-0.9,0-1.8,0.1-2.5,0.4
	c-0.7,0.3-1.3,0.6-1.8,1.1c-0.5,0.5-0.9,1-1.1,1.6c-0.3,0.6-0.4,1.3-0.4,2c0,0.9,0.2,1.6,0.6,2.3c0.4,0.7,0.9,1.2,1.5,1.7
	c-0.5,0.4-0.9,0.8-1.2,1.3c-0.3,0.5-0.5,1.1-0.5,1.8c0,0.5,0.1,1,0.4,1.3c0.2,0.4,0.6,0.7,0.9,0.9c-0.6,0.4-1.2,0.8-1.6,1.4
	c-0.4,0.6-0.6,1.3-0.6,2c0,1.3,0.5,2.2,1.5,2.8c1,0.6,2.5,0.9,4.4,0.9c1.1,0,2.1-0.1,3-0.3c0.9-0.2,1.7-0.6,2.4-1
	c0.7-0.4,1.2-1,1.6-1.6c0.4-0.6,0.6-1.3,0.6-2c0-1.2-0.4-2.1-1.1-2.8c-0.7-0.7-1.9-1-3.6-1.1L139.1,25.2z M119.1,27.1
	c0.2,0,0.4,0.1,0.7,0.1c0.3,0,0.5,0,0.7,0c0.2,0,0.4,0,0.7,0c0.3,0,0.5,0,0.7-0.1v-7.2c0-0.9,0.1-1.6,0.3-2.2
	c0.2-0.6,0.5-1.1,0.8-1.5c0.4-0.4,0.8-0.7,1.2-0.9c0.5-0.2,1-0.3,1.5-0.3c0.9,0,1.5,0.3,1.9,0.9c0.4,0.6,0.6,1.6,0.6,2.9v8.3
	c0.2,0,0.4,0.1,0.7,0.1c0.2,0,0.5,0,0.7,0c0.2,0,0.4,0,0.7,0c0.3,0,0.5,0,0.7-0.1v-9c0-1.8-0.4-3.2-1.2-4.2c-0.8-0.9-2-1.4-3.6-1.4
	c-0.6,0-1.1,0.1-1.6,0.2c-0.5,0.2-0.9,0.4-1.3,0.6c-0.4,0.3-0.7,0.5-1,0.8c-0.3,0.3-0.5,0.6-0.7,0.9c0-0.3,0-0.7-0.1-1.2
	c-0.1-0.5-0.1-0.9-0.2-1.1c-0.2,0-0.4-0.1-0.6-0.1c-0.2,0-0.4,0-0.6,0c-0.2,0-0.4,0-0.6,0c-0.2,0-0.4,0-0.6,0.1V27.1z M112.1,9.8
	c0.3,0,0.5,0,0.8,0c0.2,0,0.4,0,0.7,0c0.3,0,0.5,0,0.7-0.1c0-0.2,0.1-0.5,0.1-0.7c0-0.3,0-0.5,0-0.7c0-0.2,0-0.4,0-0.7
	c0-0.3,0-0.5-0.1-0.7c-0.2,0-0.5-0.1-0.8-0.1c-0.3,0-0.5,0-0.7,0c-0.2,0-0.4,0-0.7,0c-0.3,0-0.5,0-0.8,0.1c0,0.2-0.1,0.4-0.1,0.7
	c0,0.3,0,0.5,0,0.7c0,0.2,0,0.4,0,0.7c0,0.3,0,0.5,0.1,0.7C111.6,9.7,111.8,9.7,112.1,9.8 M111.9,27.1c0.2,0,0.4,0.1,0.7,0.1
	c0.3,0,0.5,0,0.7,0c0.2,0,0.4,0,0.7,0c0.3,0,0.5,0,0.7-0.1V12.8h-4.5c0,0.1-0.1,0.3-0.1,0.5c0,0.2,0,0.4,0,0.6c0,0.2,0,0.4,0,0.6
	c0,0.2,0,0.4,0.1,0.5h1.8V27.1z M98.7,19.7c-0.5-0.6-0.7-1.3-0.7-2.1c0-0.9,0.2-1.6,0.7-2.2c0.5-0.6,1.2-0.8,2.2-0.8
	c1,0,1.7,0.3,2.2,0.8c0.5,0.6,0.7,1.3,0.7,2.2c0,0.9-0.2,1.6-0.7,2.1c-0.5,0.6-1.2,0.8-2.2,0.8C99.9,20.5,99.1,20.2,98.7,19.7
	 M102.8,27.5c0.9,0,1.6,0.2,1.9,0.5c0.4,0.3,0.5,0.7,0.5,1.3c0,0.7-0.4,1.4-1.3,1.8c-0.8,0.5-2,0.7-3.5,0.7c-0.5,0-1,0-1.4-0.1
	c-0.4-0.1-0.8-0.2-1.1-0.3c-0.3-0.2-0.5-0.4-0.7-0.6c-0.2-0.3-0.2-0.6-0.2-1c0-0.7,0.2-1.2,0.6-1.7c0.4-0.5,1-0.7,1.9-0.7
	L102.8,27.5z M99.7,25.2c-0.8,0-1.4-0.1-1.6-0.4c-0.2-0.3-0.4-0.5-0.4-0.9c0-0.4,0.1-0.7,0.4-1c0.3-0.3,0.5-0.5,0.8-0.7
	c0.6,0.2,1.3,0.3,2.1,0.3c0.8,0,1.6-0.1,2.3-0.3c0.7-0.2,1.3-0.6,1.8-1c0.5-0.4,0.9-1,1.2-1.6c0.3-0.6,0.4-1.3,0.4-2.1
	c0-0.5-0.1-0.9-0.2-1.3c-0.1-0.4-0.3-0.7-0.5-1h2.5c0-0.2,0.1-0.4,0.1-0.7c0-0.2,0-0.4,0-0.6c0-0.4,0-0.8-0.1-1.2
	c-0.8,0-1.5,0.1-2.1,0.3c-0.6,0.2-1.1,0.4-1.5,0.7c-0.5-0.4-1.1-0.7-1.7-0.9c-0.7-0.2-1.4-0.4-2.3-0.4c-0.9,0-1.8,0.1-2.5,0.4
	c-0.7,0.3-1.3,0.6-1.8,1.1c-0.5,0.5-0.9,1-1.1,1.6c-0.3,0.6-0.4,1.3-0.4,2c0,0.9,0.2,1.6,0.6,2.3c0.4,0.7,0.9,1.2,1.5,1.7
	c-0.5,0.4-0.9,0.8-1.2,1.3c-0.3,0.5-0.5,1.1-0.5,1.8c0,0.5,0.1,1,0.4,1.3c0.3,0.4,0.6,0.7,0.9,0.9c-0.6,0.4-1.2,0.8-1.6,1.4
	c-0.4,0.6-0.6,1.3-0.6,2c0,1.3,0.5,2.2,1.5,2.8c1,0.6,2.5,0.9,4.4,0.9c1.1,0,2.1-0.1,3-0.3c0.9-0.2,1.7-0.6,2.4-1
	c0.7-0.4,1.2-1,1.6-1.6c0.4-0.6,0.6-1.3,0.6-2c0-1.2-0.4-2.1-1.1-2.8c-0.7-0.7-1.9-1-3.6-1.1L99.7,25.2z M88.6,24.9
	c-0.3,0.1-0.7,0.2-1.1,0.2c-0.4,0-0.9,0.1-1.3,0.1c-1.4,0-2.5-0.4-3.3-1.1c-0.8-0.8-1.2-2-1.3-3.8c0-0.8,0.1-1.5,0.3-2.2
	c0.2-0.7,0.4-1.2,0.8-1.7c0.4-0.5,0.8-0.9,1.4-1.1c0.6-0.3,1.2-0.4,2-0.4c0.5,0,1,0,1.4,0.1c0.4,0.1,0.8,0.2,1.2,0.3V24.9z
	 M88.6,12.9c-0.4-0.1-0.8-0.2-1.3-0.3c-0.5-0.1-1-0.1-1.5-0.1c-1.1,0-2.1,0.2-2.9,0.6c-0.9,0.4-1.6,0.9-2.3,1.6
	c-0.6,0.7-1.1,1.5-1.5,2.4c-0.3,0.9-0.5,2-0.5,3.1c0,1.3,0.2,2.5,0.6,3.4c0.4,0.9,0.9,1.6,1.6,2.2c0.7,0.6,1.4,1,2.3,1.2
	c0.9,0.3,1.8,0.4,2.8,0.4c1.1,0,2-0.1,2.9-0.2c0.9-0.1,1.7-0.3,2.4-0.5v-20c-0.2,0-0.4-0.1-0.7-0.1c-0.3,0-0.5,0-0.7,0
	c-0.2,0-0.4,0-0.7,0c-0.3,0-0.5,0-0.7,0.1V12.9z M72.4,9.8c0.3,0,0.5,0,0.8,0c0.2,0,0.4,0,0.7,0c0.3,0,0.5,0,0.7-0.1
	c0-0.2,0.1-0.5,0.1-0.7c0-0.3,0-0.5,0-0.7c0-0.2,0-0.4,0-0.7c0-0.3,0-0.5-0.1-0.7c-0.2,0-0.5-0.1-0.8-0.1c-0.3,0-0.5,0-0.7,0
	c-0.2,0-0.4,0-0.7,0c-0.3,0-0.5,0-0.8,0.1c0,0.2-0.1,0.4-0.1,0.7c0,0.3,0,0.5,0,0.7c0,0.2,0,0.4,0,0.7c0,0.3,0,0.5,0.1,0.7
	C71.9,9.7,72.1,9.7,72.4,9.8 M72.2,27.1c0.2,0,0.4,0.1,0.7,0.1c0.2,0,0.5,0,0.7,0c0.2,0,0.4,0,0.7,0c0.3,0,0.5,0,0.7-0.1V12.8h-4.5
	c0,0.1-0.1,0.3-0.1,0.5c0,0.2,0,0.4,0,0.6c0,0.2,0,0.4,0,0.6c0,0.2,0,0.4,0.1,0.5h1.8V27.1z M61.1,27.1c0.2,0,0.5,0.1,0.7,0.1
	c0.3,0,0.5,0,0.7,0c0.2,0,0.4,0,0.7,0c0.3,0,0.5,0,0.7-0.1V20c0-1,0.1-1.8,0.3-2.4c0.2-0.6,0.5-1.1,0.9-1.4c0.4-0.4,0.8-0.6,1.2-0.7
	c0.5-0.1,0.9-0.2,1.4-0.2H68c0.2,0,0.3,0,0.5,0.1c0-0.2,0.1-0.5,0.1-0.7c0-0.2,0-0.5,0-0.7c0-0.2,0-0.4,0-0.6c0-0.2,0-0.4-0.1-0.5
	c-0.1,0-0.2,0-0.4,0c-0.2,0-0.3,0-0.5,0c-1,0-1.8,0.2-2.5,0.7c-0.6,0.5-1.2,1-1.5,1.6c0-0.3,0-0.7-0.1-1.2c-0.1-0.5-0.1-0.8-0.2-1.1
	c-0.2,0-0.4-0.1-0.6-0.1c-0.2,0-0.4,0-0.6,0c-0.2,0-0.4,0-0.6,0c-0.2,0-0.4,0-0.6,0.1V27.1z M47.4,18.8c0-0.7,0.1-1.3,0.3-1.8
	c0.2-0.5,0.5-0.9,0.8-1.2c0.4-0.3,0.7-0.5,1.2-0.7s0.8-0.2,1.3-0.2c1.2,0,2.1,0.4,2.7,1.3c0.5,0.9,0.8,2,0.8,3.6
	c0,0.9-0.1,1.7-0.4,2.4c-0.3,0.7-0.6,1.2-1,1.7c-0.4,0.4-0.9,0.8-1.5,1c-0.6,0.2-1.2,0.3-1.9,0.3c-0.4,0-0.8,0-1.2-0.1
	c-0.4,0-0.7-0.1-1.1-0.2V18.8z M44.6,26.6c0.6,0.2,1.3,0.4,2.2,0.5c0.9,0.2,1.7,0.2,2.5,0.2c2.6,0,4.6-0.7,6-2.1
	c1.4-1.4,2.1-3.3,2.1-5.7c0-1.2-0.1-2.3-0.4-3.2c-0.3-0.9-0.7-1.6-1.2-2.2c-0.5-0.6-1.1-1-1.9-1.3c-0.7-0.3-1.5-0.4-2.4-0.4
	c-1,0-1.9,0.2-2.6,0.6c-0.7,0.4-1.2,0.9-1.6,1.4V6.7c-0.2,0-0.4-0.1-0.7-0.1c-0.3,0-0.5,0-0.7,0c-0.2,0-0.4,0-0.7,0
	c-0.3,0-0.5,0-0.7,0.1V26.6z"/>
</svg>
