<?xml version="1.0" encoding="utf-8"?>
<!-- Generator: Adobe Illustrator 19.0.0, SVG Export Plug-In . SVG Version: 6.00 Build 0)  -->
<svg version="1.1" id="Layer_1" xmlns="http://www.w3.org/2000/svg" xmlns:xlink="http://www.w3.org/1999/xlink" x="0px" y="0px"
	 width="205px" height="240px" viewBox="0 0 205 240" enable-background="new 0 0 205 240" xml:space="preserve">
<g id="XMLID_14_">
	<rect id="XMLID_58_" x="5.2" y="3.7" fill="#230E15" width="43.5" height="43.5"/>
	<rect id="XMLID_57_" x="55.6" y="3.7" fill="#230E15" width="43.5" height="43.5"/>
	<rect id="XMLID_56_" x="105.9" y="3.7" fill="#230E15" width="43.5" height="43.5"/>
	<rect id="XMLID_55_" x="156.3" y="3.7" fill="#230E15" width="43.5" height="43.5"/>
	<rect id="XMLID_54_" x="5.2" y="54" fill="#230E15" width="43.5" height="43.5"/>
	<rect id="XMLID_53_" x="55.6" y="54" fill="#230E15" width="43.5" height="43.5"/>
	<rect id="XMLID_52_" x="105.9" y="54" fill="#230E15" width="43.5" height="43.5"/>
	<rect id="XMLID_51_" x="156.3" y="54" fill="#230E15" width="43.5" height="43.5"/>
	<rect id="XMLID_50_" x="5.2" y="104.4" fill="#230E15" width="43.5" height="43.5"/>
	<rect id="XMLID_49_" x="55.6" y="104.4" fill="#230E15" width="43.5" height="43.5"/>
	<rect id="XMLID_48_" x="105.9" y="104.4" fill="#230E15" width="43.5" height="43.5"/>
	<rect id="XMLID_47_" x="156.3" y="104.4" fill="#230E15" width="43.5" height="43.5"/>
	<rect id="XMLID_46_" x="5.2" y="154.7" fill="#230E15" width="43.5" height="43.5"/>
	<rect id="XMLID_45_" x="55.6" y="154.7" fill="#230E15" width="43.5" height="43.5"/>
	<rect id="XMLID_44_" x="105.9" y="154.7" fill="#230E15" width="43.5" height="43.5"/>
	<rect id="XMLID_43_" x="156.3" y="154.7" fill="#230E15" width="43.5" height="43.5"/>
	<path fill="#230E15" d="M189.6,222c0-0.7,0.1-1.2,0.3-1.7c0.2-0.5,0.4-0.9,0.8-1.2c0.3-0.3,0.7-0.6,1.1-0.7
		c0.4-0.2,0.8-0.2,1.3-0.2c1.2,0,2,0.4,2.6,1.2c0.5,0.8,0.8,1.9,0.8,3.4c0,0.9-0.1,1.6-0.3,2.3c-0.2,0.6-0.5,1.2-0.9,1.6
		c-0.4,0.4-0.8,0.7-1.4,0.9c-0.5,0.2-1.1,0.3-1.7,0.3c-0.6,0-1,0-1.4-0.1c-0.4-0.1-0.7-0.1-1-0.3V222z M186.9,236
		c0.2,0,0.4,0.1,0.6,0.1c0.2,0,0.5,0,0.7,0c0.2,0,0.4,0,0.6,0c0.2,0,0.5,0,0.7-0.1v-6.2c0.3,0.1,0.7,0.2,1.1,0.2
		c0.4,0.1,0.8,0.1,1.2,0.1c2.3,0,4.1-0.7,5.4-2c1.3-1.3,1.9-3.1,1.9-5.5c0-1.2-0.1-2.2-0.4-3c-0.3-0.9-0.7-1.6-1.1-2.1
		c-0.5-0.6-1.1-1-1.7-1.2c-0.7-0.3-1.4-0.4-2.2-0.4c-0.5,0-1,0.1-1.4,0.2c-0.4,0.1-0.8,0.3-1.2,0.5c-0.3,0.2-0.6,0.4-0.9,0.7
		c-0.2,0.3-0.5,0.5-0.6,0.8c0-0.1,0-0.2,0-0.4c0-0.2-0.1-0.4-0.1-0.6c0-0.2-0.1-0.4-0.1-0.6c0-0.2-0.1-0.3-0.1-0.3
		c-0.2,0-0.4-0.1-0.6-0.1c-0.2,0-0.4,0-0.6,0c-0.2,0-0.4,0-0.6,0c-0.2,0-0.4,0-0.5,0.1V236z M180.5,221.3c-0.2,0-0.6-0.1-0.9-0.1
		c-0.4,0-0.8,0-1.4,0c-0.8,0-1.5,0.1-2.2,0.3c-0.7,0.2-1.3,0.5-1.8,0.8c-0.5,0.4-0.9,0.9-1.3,1.4c-0.3,0.6-0.5,1.2-0.5,2
		c0,0.8,0.1,1.4,0.4,2c0.3,0.5,0.6,1,1.1,1.3c0.5,0.4,1.1,0.6,1.8,0.8c0.7,0.2,1.5,0.2,2.3,0.2c0.9,0,1.8-0.1,2.7-0.2
		c0.9-0.1,1.6-0.3,2.2-0.4v-8.5c0-1.8-0.5-3-1.4-3.8c-0.9-0.8-2.3-1.2-4-1.2c-0.7,0-1.4,0.1-2.1,0.2c-0.7,0.1-1.4,0.3-2,0.4
		c0,0.8,0.2,1.5,0.5,2.1c0.5-0.2,1-0.3,1.6-0.4c0.5-0.1,1.1-0.1,1.7-0.1c1,0,1.8,0.2,2.3,0.6c0.5,0.4,0.8,1.1,0.8,2.2V221.3z
		 M180.5,227.7c-0.3,0.1-0.7,0.2-1.1,0.2c-0.4,0-0.9,0.1-1.3,0.1c-0.3,0-0.7,0-1-0.1c-0.4,0-0.7-0.1-1-0.3c-0.3-0.2-0.5-0.4-0.7-0.7
		c-0.2-0.3-0.3-0.7-0.3-1.2c0-0.8,0.3-1.4,0.9-1.9c0.6-0.4,1.4-0.6,2.5-0.6c0.3,0,0.6,0,1,0.1c0.4,0,0.7,0.1,1,0.1V227.7z
		 M161.5,222.7c-0.4-0.5-0.7-1.2-0.7-2c0-0.8,0.2-1.5,0.7-2.1c0.4-0.5,1.1-0.8,2.1-0.8c1,0,1.7,0.3,2.1,0.8c0.5,0.5,0.7,1.2,0.7,2.1
		c0,0.8-0.2,1.5-0.7,2c-0.5,0.5-1.2,0.8-2.1,0.8C162.6,223.5,161.9,223.2,161.5,222.7 M165.4,230.1c0.9,0,1.5,0.2,1.8,0.5
		c0.3,0.3,0.5,0.7,0.5,1.2c0,0.7-0.4,1.3-1.2,1.8s-1.9,0.7-3.3,0.7c-0.5,0-0.9,0-1.3-0.1c-0.4-0.1-0.7-0.2-1-0.3
		c-0.3-0.2-0.5-0.3-0.7-0.6c-0.2-0.2-0.2-0.6-0.2-1c0-0.6,0.2-1.1,0.6-1.6c0.4-0.4,1-0.7,1.8-0.6L165.4,230.1z M162.4,227.9
		c-0.8,0-1.3-0.1-1.5-0.4c-0.2-0.2-0.3-0.5-0.3-0.8c0-0.3,0.1-0.6,0.4-0.9c0.2-0.3,0.5-0.5,0.7-0.6c0.6,0.2,1.2,0.2,2,0.2
		c0.8,0,1.5-0.1,2.2-0.3s1.2-0.5,1.7-1c0.5-0.4,0.9-0.9,1.1-1.5c0.3-0.6,0.4-1.2,0.4-2c0-0.5-0.1-0.9-0.2-1.2
		c-0.1-0.4-0.3-0.7-0.4-1h2.4c0-0.2,0.1-0.4,0.1-0.6c0-0.2,0-0.4,0-0.6c0-0.4,0-0.8-0.1-1.1c-0.7,0-1.4,0.1-2,0.3
		c-0.6,0.2-1.1,0.4-1.4,0.7c-0.5-0.4-1-0.6-1.7-0.9c-0.6-0.2-1.4-0.3-2.2-0.3c-0.9,0-1.7,0.1-2.4,0.4c-0.7,0.2-1.3,0.6-1.7,1
		c-0.5,0.4-0.8,0.9-1.1,1.5c-0.2,0.6-0.4,1.2-0.4,1.9c0,0.8,0.2,1.5,0.5,2.2c0.4,0.6,0.8,1.2,1.4,1.6c-0.5,0.4-0.9,0.8-1.2,1.3
		c-0.3,0.5-0.4,1-0.4,1.7c0,0.5,0.1,0.9,0.4,1.3c0.2,0.3,0.5,0.6,0.9,0.9c-0.6,0.3-1.1,0.8-1.5,1.4c-0.4,0.6-0.6,1.2-0.6,1.9
		c0,1.2,0.5,2.1,1.4,2.7c1,0.6,2.3,0.8,4.1,0.8c1,0,2-0.1,2.9-0.3c0.9-0.2,1.7-0.5,2.3-1c0.7-0.4,1.2-0.9,1.5-1.5
		c0.4-0.6,0.6-1.2,0.6-1.9c0-1.1-0.4-2-1.1-2.6c-0.7-0.6-1.8-1-3.4-1L162.4,227.9z M139.7,221.6c0.1-1.2,0.5-2.1,1-2.7
		c0.6-0.7,1.4-1,2.5-1c0.5,0,1,0.1,1.4,0.3c0.4,0.2,0.7,0.5,1,0.8c0.3,0.3,0.4,0.7,0.6,1.2c0.1,0.4,0.2,0.9,0.2,1.4H139.7z
		 M148.9,223.6c0-0.2,0-0.4,0.1-0.7c0-0.3,0-0.5,0-0.8c0-0.9-0.1-1.7-0.4-2.5c-0.2-0.8-0.6-1.4-1.1-2c-0.5-0.6-1.1-1-1.8-1.3
		c-0.7-0.3-1.5-0.5-2.5-0.5c-1.1,0-2,0.2-2.8,0.6c-0.8,0.4-1.5,0.9-2,1.5c-0.5,0.6-0.9,1.4-1.2,2.3c-0.3,0.9-0.4,1.8-0.4,2.8
		c0,1,0.1,2,0.4,2.8c0.3,0.9,0.7,1.6,1.3,2.2c0.6,0.6,1.3,1.1,2.2,1.5c0.9,0.3,1.9,0.5,3.2,0.5c0.8,0,1.6-0.1,2.3-0.2
		c0.7-0.1,1.3-0.3,1.9-0.6c0-0.4-0.1-0.7-0.2-1.1c-0.1-0.4-0.2-0.7-0.3-1c-1.1,0.4-2.3,0.7-3.6,0.7c-1.4,0-2.5-0.3-3.2-1
		c-0.7-0.7-1.1-1.8-1.2-3.3H148.9z M122.4,229.7c0.2,0,0.4,0.1,0.7,0.1c0.2,0,0.5,0,0.6,0c0.2,0,0.4,0,0.7,0c0.2,0,0.5,0,0.7-0.1v-7
		c0-0.8,0.1-1.5,0.3-2.1c0.2-0.6,0.5-1.1,0.8-1.4c0.3-0.4,0.7-0.6,1.2-0.8c0.4-0.2,0.9-0.3,1.4-0.3c0.8,0,1.5,0.3,1.9,0.9
		c0.4,0.6,0.6,1.5,0.6,2.8v7.9c0.2,0,0.4,0.1,0.6,0.1c0.2,0,0.5,0,0.6,0c0.2,0,0.4,0,0.6,0c0.2,0,0.5,0,0.7-0.1v-8.6
		c0-1.7-0.4-3.1-1.1-4c-0.8-0.9-1.9-1.3-3.5-1.3c-0.5,0-1,0.1-1.5,0.2c-0.4,0.1-0.8,0.3-1.2,0.6c-0.3,0.2-0.6,0.5-0.9,0.8
		c-0.2,0.3-0.4,0.5-0.6,0.8v-7.9c-0.2,0-0.4-0.1-0.7-0.1c-0.2,0-0.5,0-0.7,0c-0.2,0-0.4,0-0.6,0c-0.2,0-0.5,0-0.6,0.1V229.7z
		 M113.5,226c0,1.4,0.4,2.4,1.1,3.1c0.7,0.6,1.7,0.9,3,0.9c0.4,0,0.9,0,1.2-0.1c0.4,0,0.8-0.1,1.1-0.2c0-0.3,0-0.6,0-1
		c0-0.4-0.1-0.7-0.2-1.1c-0.2,0.1-0.4,0.1-0.7,0.1c-0.3,0-0.5,0.1-0.8,0.1c-0.4,0-0.7,0-1-0.1c-0.3-0.1-0.5-0.2-0.6-0.5
		c-0.2-0.2-0.3-0.6-0.3-1c-0.1-0.4-0.1-1-0.1-1.8v-6.2h3.4c0-0.2,0.1-0.4,0.1-0.5c0-0.2,0-0.4,0-0.6c0-0.4,0-0.7-0.1-1h-3.4v-3.4
		h-0.2l-4.5,5.1l0.1,0.4h2.1V226z M94.9,222.7c-0.4-0.5-0.7-1.2-0.7-2c0-0.8,0.2-1.5,0.7-2.1c0.4-0.5,1.1-0.8,2.1-0.8
		c1,0,1.7,0.3,2.1,0.8c0.5,0.5,0.7,1.2,0.7,2.1c0,0.8-0.2,1.5-0.7,2c-0.5,0.5-1.2,0.8-2.1,0.8C96,223.5,95.3,223.2,94.9,222.7
		 M98.8,230.1c0.9,0,1.5,0.2,1.9,0.5c0.3,0.3,0.5,0.7,0.5,1.2c0,0.7-0.4,1.3-1.2,1.8c-0.8,0.5-1.9,0.7-3.3,0.7c-0.5,0-0.9,0-1.3-0.1
		c-0.4-0.1-0.7-0.2-1-0.3c-0.3-0.2-0.5-0.3-0.7-0.6c-0.2-0.2-0.2-0.6-0.2-1c0-0.6,0.2-1.1,0.6-1.6c0.4-0.4,1-0.7,1.8-0.6L98.8,230.1
		z M95.8,227.9c-0.8,0-1.3-0.1-1.5-0.4c-0.2-0.2-0.3-0.5-0.3-0.8c0-0.3,0.1-0.6,0.4-0.9c0.2-0.3,0.5-0.5,0.7-0.6
		c0.6,0.2,1.2,0.2,2,0.2c0.8,0,1.5-0.1,2.2-0.3c0.7-0.2,1.2-0.5,1.7-1c0.5-0.4,0.9-0.9,1.1-1.5c0.3-0.6,0.4-1.2,0.4-2
		c0-0.5-0.1-0.9-0.2-1.2c-0.1-0.4-0.3-0.7-0.4-1h2.4c0-0.2,0.1-0.4,0.1-0.6c0-0.2,0-0.4,0-0.6c0-0.4,0-0.8-0.1-1.1
		c-0.7,0-1.4,0.1-2,0.3c-0.6,0.2-1.1,0.4-1.4,0.7c-0.5-0.4-1-0.6-1.7-0.9c-0.6-0.2-1.4-0.3-2.2-0.3c-0.9,0-1.7,0.1-2.4,0.4
		c-0.7,0.2-1.3,0.6-1.7,1c-0.5,0.4-0.8,0.9-1.1,1.5c-0.2,0.6-0.4,1.2-0.4,1.9c0,0.8,0.2,1.5,0.5,2.2c0.4,0.6,0.8,1.2,1.4,1.6
		c-0.5,0.4-0.9,0.8-1.2,1.3c-0.3,0.5-0.4,1-0.4,1.7c0,0.5,0.1,0.9,0.4,1.3c0.2,0.3,0.5,0.6,0.9,0.9c-0.6,0.3-1.1,0.8-1.5,1.4
		c-0.4,0.6-0.6,1.2-0.6,1.9c0,1.2,0.5,2.1,1.4,2.7c1,0.6,2.3,0.8,4.2,0.8c1,0,2-0.1,2.9-0.3c0.9-0.2,1.7-0.5,2.3-1
		c0.7-0.4,1.2-0.9,1.5-1.5c0.4-0.6,0.6-1.2,0.6-1.9c0-1.1-0.4-2-1.1-2.6c-0.7-0.6-1.8-1-3.4-1L95.8,227.9z M76.8,229.7
		c0.2,0,0.4,0.1,0.7,0.1c0.2,0,0.5,0,0.7,0c0.2,0,0.4,0,0.6,0c0.2,0,0.5,0,0.6-0.1v-6.9c0-0.8,0.1-1.5,0.3-2.1
		c0.2-0.6,0.5-1.1,0.8-1.4c0.3-0.4,0.7-0.6,1.2-0.8c0.4-0.2,0.9-0.3,1.4-0.3c0.8,0,1.5,0.3,1.9,0.9c0.4,0.6,0.6,1.5,0.6,2.8v7.9
		c0.2,0,0.4,0.1,0.6,0.1c0.2,0,0.5,0,0.6,0c0.2,0,0.4,0,0.7,0c0.2,0,0.5,0,0.7-0.1v-8.6c0-1.7-0.4-3.1-1.1-4
		c-0.7-0.9-1.9-1.3-3.4-1.3c-0.5,0-1,0.1-1.5,0.2c-0.5,0.1-0.9,0.3-1.2,0.6c-0.4,0.2-0.7,0.5-0.9,0.8c-0.3,0.3-0.5,0.6-0.7,0.9
		c0-0.3,0-0.7-0.1-1.1c-0.1-0.5-0.1-0.8-0.2-1.1c-0.2,0-0.4-0.1-0.5-0.1c-0.2,0-0.3,0-0.5,0c-0.2,0-0.4,0-0.6,0
		c-0.2,0-0.4,0-0.6,0.1V229.7z M70.1,213.3c0.3,0,0.5,0,0.7,0c0.2,0,0.4,0,0.7,0c0.3,0,0.5,0,0.7-0.1c0-0.2,0.1-0.4,0.1-0.7
		c0-0.2,0-0.5,0-0.7c0-0.2,0-0.4,0-0.7c0-0.2,0-0.5-0.1-0.7c-0.2,0-0.4-0.1-0.7-0.1c-0.3,0-0.5,0-0.7,0c-0.2,0-0.4,0-0.7,0
		c-0.3,0-0.5,0-0.7,0.1c0,0.2-0.1,0.4-0.1,0.7c0,0.2,0,0.5,0,0.7c0,0.2,0,0.4,0,0.7c0,0.2,0,0.5,0.1,0.7
		C69.6,213.2,69.9,213.2,70.1,213.3 M70,229.7c0.2,0,0.4,0.1,0.6,0.1c0.2,0,0.4,0,0.6,0c0.2,0,0.4,0,0.6,0c0.2,0,0.5,0,0.6-0.1
		v-13.6h-4.3c0,0.1-0.1,0.3-0.1,0.5c0,0.2,0,0.4,0,0.5c0,0.2,0,0.4,0,0.5c0,0.2,0,0.3,0.1,0.5H70V229.7z M57.4,222.7
		c-0.5-0.5-0.7-1.2-0.7-2c0-0.8,0.2-1.5,0.7-2.1c0.4-0.5,1.2-0.8,2.1-0.8c1,0,1.7,0.3,2.1,0.8c0.5,0.5,0.7,1.2,0.7,2.1
		c0,0.8-0.2,1.5-0.7,2c-0.5,0.5-1.2,0.8-2.1,0.8C58.5,223.5,57.8,223.2,57.4,222.7 M61.3,230.1c0.9,0,1.5,0.2,1.9,0.5
		c0.3,0.3,0.5,0.7,0.5,1.2c0,0.7-0.4,1.3-1.2,1.8c-0.8,0.5-1.9,0.7-3.3,0.7c-0.5,0-0.9,0-1.3-0.1c-0.4-0.1-0.7-0.2-1-0.3
		c-0.3-0.2-0.5-0.3-0.7-0.6c-0.2-0.2-0.2-0.6-0.2-1c0-0.6,0.2-1.1,0.6-1.6c0.4-0.4,1-0.7,1.8-0.6L61.3,230.1z M58.3,227.9
		c-0.8,0-1.3-0.1-1.5-0.4c-0.2-0.2-0.3-0.5-0.3-0.8c0-0.3,0.1-0.6,0.4-0.9c0.2-0.3,0.5-0.5,0.7-0.6c0.6,0.2,1.2,0.2,2,0.2
		c0.8,0,1.5-0.1,2.2-0.3c0.7-0.2,1.2-0.5,1.7-1c0.5-0.4,0.9-0.9,1.1-1.5c0.3-0.6,0.4-1.2,0.4-2c0-0.5-0.1-0.9-0.2-1.2
		c-0.1-0.4-0.3-0.7-0.5-1h2.4c0-0.2,0.1-0.4,0.1-0.6c0-0.2,0-0.4,0-0.6c0-0.4,0-0.8-0.1-1.1c-0.7,0-1.4,0.1-2,0.3
		c-0.6,0.2-1.1,0.4-1.4,0.7c-0.5-0.4-1-0.6-1.7-0.9c-0.6-0.2-1.4-0.3-2.2-0.3c-0.9,0-1.7,0.1-2.4,0.4c-0.7,0.2-1.3,0.6-1.7,1
		c-0.5,0.4-0.8,0.9-1.1,1.5c-0.2,0.6-0.4,1.2-0.4,1.9c0,0.8,0.2,1.5,0.5,2.2c0.4,0.6,0.8,1.2,1.4,1.6c-0.5,0.4-0.9,0.8-1.2,1.3
		c-0.3,0.5-0.4,1-0.4,1.7c0,0.5,0.1,0.9,0.4,1.3c0.2,0.3,0.5,0.6,0.9,0.9c-0.6,0.3-1.1,0.8-1.5,1.4c-0.4,0.6-0.6,1.2-0.6,1.9
		c0,1.2,0.5,2.1,1.4,2.7c1,0.6,2.3,0.8,4.2,0.8c1,0,2-0.1,2.9-0.3c0.9-0.2,1.7-0.5,2.3-1c0.7-0.4,1.2-0.9,1.5-1.5
		c0.4-0.6,0.6-1.2,0.6-1.9c0-1.1-0.4-2-1.1-2.6c-0.7-0.6-1.8-1-3.4-1L58.3,227.9z M47.8,227.6c-0.3,0.1-0.6,0.2-1,0.2
		c-0.4,0-0.8,0.1-1.3,0.1c-1.3,0-2.4-0.4-3.2-1.1c-0.8-0.7-1.2-1.9-1.2-3.6c0-0.7,0.1-1.4,0.2-2s0.4-1.2,0.8-1.6
		c0.3-0.5,0.8-0.8,1.3-1.1c0.5-0.3,1.2-0.4,1.9-0.4c0.5,0,0.9,0,1.3,0.1c0.4,0.1,0.8,0.2,1.1,0.3V227.6z M47.8,216.3
		c-0.4-0.1-0.8-0.2-1.2-0.3c-0.5-0.1-0.9-0.1-1.4-0.1c-1,0-2,0.2-2.8,0.5c-0.8,0.4-1.6,0.8-2.2,1.5c-0.6,0.6-1.1,1.4-1.4,2.3
		c-0.3,0.9-0.5,1.9-0.5,3c0,1.3,0.2,2.3,0.6,3.2c0.4,0.9,0.9,1.6,1.5,2.1c0.6,0.5,1.4,0.9,2.2,1.2c0.9,0.2,1.8,0.4,2.7,0.4
		c1,0,1.9-0.1,2.8-0.2c0.8-0.1,1.6-0.3,2.2-0.5v-19c-0.2,0-0.4-0.1-0.6-0.1c-0.2,0-0.5,0-0.6,0c-0.2,0-0.4,0-0.6,0
		c-0.2,0-0.5,0-0.7,0.1V216.3z M32.4,213.3c0.3,0,0.5,0,0.7,0c0.2,0,0.4,0,0.7,0c0.3,0,0.5,0,0.7-0.1c0-0.2,0.1-0.4,0.1-0.7
		c0-0.2,0-0.5,0-0.7c0-0.2,0-0.4,0-0.7c0-0.2,0-0.5-0.1-0.7c-0.2,0-0.4-0.1-0.7-0.1c-0.3,0-0.5,0-0.7,0c-0.2,0-0.4,0-0.7,0
		c-0.3,0-0.5,0-0.7,0.1c0,0.2-0.1,0.4-0.1,0.7c0,0.2,0,0.5,0,0.7c0,0.2,0,0.4,0,0.7c0,0.2,0,0.5,0.1,0.7
		C31.9,213.2,32.1,213.2,32.4,213.3 M32.2,229.7c0.2,0,0.4,0.1,0.6,0.1c0.2,0,0.4,0,0.6,0c0.2,0,0.4,0,0.6,0c0.2,0,0.5,0,0.6-0.1
		v-13.6h-4.3c0,0.1-0.1,0.3-0.1,0.5c0,0.2,0,0.4,0,0.5c0,0.2,0,0.4,0,0.5c0,0.2,0,0.3,0.1,0.5h1.7V229.7z M21.6,229.7
		c0.2,0,0.4,0.1,0.7,0.1c0.2,0,0.5,0,0.6,0c0.2,0,0.4,0,0.6,0c0.2,0,0.5,0,0.6-0.1V223c0-0.9,0.1-1.7,0.3-2.2c0.2-0.6,0.5-1,0.8-1.4
		c0.3-0.3,0.7-0.6,1.2-0.7c0.4-0.1,0.9-0.2,1.4-0.2h0.4c0.1,0,0.3,0,0.4,0.1c0-0.2,0.1-0.4,0.1-0.7c0-0.2,0-0.4,0-0.7
		c0-0.2,0-0.4,0-0.6c0-0.2,0-0.3-0.1-0.5c-0.1,0-0.2,0-0.4,0c-0.1,0-0.3,0-0.4,0c-1,0-1.7,0.2-2.3,0.7c-0.6,0.4-1.1,1-1.5,1.6
		c0-0.3,0-0.7-0.1-1.1c-0.1-0.4-0.1-0.8-0.2-1c-0.2,0-0.3-0.1-0.5-0.1c-0.2,0-0.4,0-0.6,0c-0.2,0-0.4,0-0.6,0c-0.2,0-0.4,0-0.6,0.1
		V229.7z M8.6,221.9c0-0.7,0.1-1.3,0.3-1.8c0.2-0.5,0.5-0.9,0.8-1.2c0.3-0.3,0.7-0.5,1.1-0.6c0.4-0.1,0.8-0.2,1.2-0.2
		c1.2,0,2,0.4,2.5,1.2c0.5,0.8,0.8,1.9,0.8,3.4c0,0.9-0.1,1.6-0.4,2.3c-0.2,0.6-0.6,1.2-1,1.6c-0.4,0.4-0.9,0.7-1.4,0.9
		c-0.6,0.2-1.2,0.3-1.8,0.3c-0.4,0-0.8,0-1.1-0.1c-0.4,0-0.7-0.1-1-0.2V221.9z M6,229.3c0.6,0.2,1.3,0.4,2.1,0.5
		c0.8,0.1,1.6,0.2,2.4,0.2c2.5,0,4.4-0.7,5.7-2c1.3-1.3,2-3.1,2-5.5c0-1.2-0.1-2.2-0.4-3c-0.3-0.9-0.7-1.6-1.1-2.1
		c-0.5-0.6-1.1-1-1.8-1.2c-0.7-0.3-1.4-0.4-2.2-0.4c-1,0-1.8,0.2-2.4,0.6c-0.7,0.4-1.2,0.8-1.5,1.4v-7.5c-0.2,0-0.4-0.1-0.7-0.1
		c-0.2,0-0.5,0-0.7,0c-0.2,0-0.4,0-0.6,0c-0.2,0-0.5,0-0.6,0.1V229.3z"/>
	<rect id="XMLID_15_" x="5.2" y="3.7" fill="none" width="194.5" height="232.6"/>
</g>
</svg>
