<?xml version="1.0" encoding="utf-8"?>
<!-- Generator: Adobe Illustrator 19.1.0, SVG Export Plug-In . SVG Version: 6.00 Build 0)  -->
<svg version="1.1" id="Layer_1" xmlns="http://www.w3.org/2000/svg" xmlns:xlink="http://www.w3.org/1999/xlink" x="0px" y="0px"
	 width="160px" height="80px" viewBox="0 0 160 80" style="enable-background:new 0 0 160 80;" xml:space="preserve">
<style type="text/css">
	.st0{fill:#221F1F;}
</style>
<g>
	<g>
		<g>
			<path class="st0" d="M23.44,24.5l6.81,15.57H16.58L23.44,24.5z M25.95,15.07h-1.06l-14.73,33.6c-1.73,4.02-2.74,5.08-5.19,5.41v1
				h11.11v-1h-0.11c-2.62,0-4.02-0.89-4.02-2.57c0-0.45,0.11-1,0.33-1.51l3.41-7.81h15.46l2.9,6.59c0.56,1.34,0.73,1.95,0.73,2.57
				c0,1.68-1.51,2.74-3.91,2.74h-0.11v1h15.74v-1h-0.22c-2.68,0-3.74-0.84-5.14-4.07L25.95,15.07z"/>
			<path class="st0" d="M56.69,34.21h0.11c2.4-4.07,4.41-5.64,6.87-5.64c1.84,0,3.52,1.51,3.52,3.18c0,1.34-1.23,2.51-2.62,2.51
				c-0.56,0-1.17-0.28-1.68-0.67l-1.12-0.95c-0.28-0.28-0.61-0.39-1.06-0.39c-1.28,0-2.73,1.4-4.02,3.85v12.73
				c0,4.07,0.89,5.25,4.07,5.25h0.84v1H47.87v-1h0.17c3.29,0,4.07-1.12,4.07-5.19V37c0-3.57-0.56-4.58-2.46-4.58
				c-0.5,0-0.78,0.06-1.45,0.33l-0.33-0.95l7.76-3.24h1.06V34.21z"/>
			<path class="st0" d="M76.54,29.19h5.97v1.62h-5.97v17.08v0.89c0,2.29,1.34,3.85,3.29,3.85c1.28,0,2.23-0.56,3.4-2.12h1.12
				c-2.01,3.68-4.19,5.3-7.09,5.3c-3.52,0-5.25-2.4-5.25-7.37V30.81h-3.96V29.8c3.74-1.56,6.42-4.69,7.65-8.82h0.84V29.19z"/>
			<g>
				<path class="st0" d="M115.37,25.23h-0.95c-0.56-3.68-2.57-6.08-5.36-6.2l-1.34-0.06h-0.62H96.06v14.79h9.88
					c3.46,0,5.02-1.67,5.02-5.36v-0.22h1v13.51h-1v-0.11c0-4.07-1.45-5.58-5.25-5.58h-9.66v13.84c0,2.29,0.67,3.07,2.57,3.07h0.56
					h7.87h0.89c2.62,0,4.74-0.95,6.53-2.79c1.12-1.23,1.17-1.56,2.68-4.19l0.22-0.39h1.12l-3.12,9.54H84.5v-1.01h0.33
					c3.91,0,5.19-1.22,5.19-4.85v-1.56v-23.5V22.6c0-3.63-1.23-4.8-5.19-4.8H84.5v-1.06h30.42L115.37,25.23z"/>
				<path class="st0" d="M153.38,16.75l-26.06,35.94h16.19c4.02,0,5.64-0.5,6.92-2.12c1-1.23,1.79-3.01,2.51-5.69h0.95l-1.95,10.21
					h-32.99v-1.01l25.39-35.05h-12.56c-4.35,0-5.97,0.5-7.14,2.34c-0.67,1-1,2.18-1.28,4.41l-0.06,0.45h-1l0.78-9.49H153.38z"/>
			</g>
			<rect x="4.6" y="62.27" class="st0" width="150.79" height="2.66"/>
		</g>
	</g>
</g>
</svg>
